<svg width="238" height="62" viewBox="0 0 238 62" fill="none" xmlns="http://www.w3.org/2000/svg">
<path d="M62.0305 8.12075C71.0626 17.5431 71.7893 32.2752 64.6779 45.4457C62.7573 33.3684 53.4137 22.072 39.1389 17.491C23.7221 12.5977 8.30534 17.0746 0 27.6422C2.23206 21.9679 6.02137 16.6581 11.2641 12.1812C19.8809 4.26852 30.8336 0.103956 40.5924 0.103956C48.8458 -0.572786 56.7359 2.49858 62.0305 8.12075Z" fill="#F6891F"/>
<path d="M59.7985 49.246C59.7985 49.6625 59.7985 49.9749 59.7985 49.9749C57.5664 48.0487 54.9191 46.2267 51.9084 44.665C38.3603 37.4811 24.0336 38.6264 19.9328 46.9035C18.0122 50.6516 18.4275 55.545 21.0748 60.4904C10.9527 56.7423 4.51605 49.194 5.24277 42.0101C6.38475 32.2234 19.5176 26.1327 34.571 28.0588C49.6245 30.037 60.8886 39.4593 59.7985 49.246Z" fill="#F6891F"/>
<path d="M51.8569 48.8816C53.3623 53.0462 49.6249 58.304 43.2401 60.9589C36.8554 63.1973 30.4707 61.6877 28.5501 57.5752C27.0447 53.4106 30.7821 48.1528 37.1669 45.4979C43.6035 42.843 50.3516 44.3527 51.8569 48.8816Z" fill="#F6891F"/>
<path d="M98.0538 22.6969V39.6675H95.095V36.9605C94.4202 37.8976 93.5378 38.6263 92.4996 39.0949C91.4615 39.5634 90.3195 39.8237 89.0737 39.8237C87.4126 39.8237 85.9592 39.4593 84.6615 38.7305C83.3638 38.0017 82.3256 37.0126 81.5989 35.6591C80.8721 34.3577 80.5088 32.848 80.5088 31.1301C80.5088 29.4122 80.8721 27.9026 81.5989 26.6012C82.3256 25.2997 83.3638 24.3106 84.6615 23.5818C85.9592 22.853 87.4126 22.4886 89.0737 22.4886C90.2676 22.4886 91.4096 22.6969 92.4477 23.1654C93.4859 23.6339 94.3164 24.3106 94.9912 25.1956V22.6448H98.0538V22.6969ZM92.2401 36.44C93.1225 35.9194 93.7973 35.2426 94.2645 34.3056C94.7317 33.4206 94.9912 32.3795 94.9912 31.1822C94.9912 29.9849 94.7317 28.9958 94.2645 28.0588C93.7973 27.1738 93.0706 26.445 92.2401 25.9765C91.3576 25.508 90.4233 25.2477 89.3332 25.2477C88.2431 25.2477 87.2569 25.508 86.4263 25.9765C85.5439 26.445 84.8691 27.1738 84.4019 28.0588C83.8828 28.9437 83.6752 29.9849 83.6752 31.1822C83.6752 32.3795 83.9347 33.3686 84.4019 34.3056C84.921 35.1906 85.5958 35.9194 86.4263 36.44C87.3088 36.9605 88.2431 37.1688 89.3332 37.1688C90.3714 37.1688 91.3576 36.9085 92.2401 36.44Z" fill="#414042"/>
<path d="M112.744 38.6784C112.277 39.0428 111.758 39.3552 111.083 39.5634C110.409 39.7716 109.734 39.8757 109.059 39.8757C107.346 39.8757 106.048 39.4072 105.114 38.5223C104.18 37.5852 103.712 36.2838 103.712 34.5659V19.0009H106.775V22.6969H111.602V25.2477H106.775V34.4098C106.775 35.3468 106.983 36.0235 107.45 36.5441C107.917 37.0126 108.54 37.2729 109.422 37.2729C110.357 37.2729 111.135 37.0126 111.81 36.492L112.744 38.6784Z" fill="#414042"/>
<path d="M116.482 18.8967C116.066 18.5323 115.911 18.0638 115.911 17.4912C115.911 16.9185 116.118 16.45 116.482 16.0856C116.897 15.6692 117.364 15.513 117.987 15.513C118.558 15.513 119.077 15.7212 119.492 16.0856C119.908 16.45 120.063 16.9185 120.063 17.4912C120.063 18.0638 119.856 18.5323 119.492 18.9488C119.077 19.3652 118.61 19.5214 117.987 19.5214C117.364 19.4693 116.845 19.2611 116.482 18.8967ZM116.43 22.6969H119.492V39.6675H116.43V22.6969Z" fill="#414042"/>
<path d="M126.655 38.5222C125.773 37.6373 125.306 36.3358 125.306 34.7221V15.9815H128.368V34.4618C128.368 35.3988 128.576 36.0756 129.043 36.5961C129.458 37.0646 130.133 37.3249 131.016 37.3249C131.535 37.3249 132.054 37.2208 132.521 37.0126L132.677 39.5634C131.95 39.8237 131.223 39.9278 130.496 39.9278C128.835 39.8757 127.538 39.4072 126.655 38.5222Z" fill="#414042"/>
<path d="M137.972 38.7305C136.623 38.0017 135.585 36.9605 134.806 35.6591C134.027 34.3577 133.664 32.848 133.664 31.1822C133.664 29.5164 134.027 28.0067 134.806 26.7053C135.585 25.4039 136.623 24.3627 137.972 23.6339C139.322 22.9051 140.827 22.5407 142.488 22.5407C144.15 22.5407 145.655 22.9051 147.005 23.6339C148.354 24.3627 149.392 25.4039 150.119 26.7053C150.898 28.0067 151.261 29.5164 151.261 31.1822C151.261 32.848 150.898 34.3577 150.119 35.6591C149.34 36.9605 148.302 38.0017 147.005 38.7305C145.655 39.4593 144.15 39.8237 142.488 39.8237C140.827 39.8757 139.27 39.5113 137.972 38.7305ZM145.395 36.44C146.278 35.9194 146.953 35.2426 147.42 34.3056C147.887 33.4206 148.146 32.3795 148.146 31.1822C148.146 29.9849 147.887 28.9958 147.42 28.0588C146.953 27.1738 146.278 26.445 145.395 25.9765C144.513 25.508 143.579 25.2477 142.488 25.2477C141.398 25.2477 140.412 25.508 139.582 25.9765C138.699 26.445 138.024 27.1738 137.557 28.0588C137.038 28.9437 136.83 29.9849 136.83 31.1822C136.83 32.3795 137.09 33.3686 137.557 34.3056C138.076 35.1906 138.751 35.9194 139.582 36.44C140.464 36.9605 141.398 37.1688 142.488 37.1688C143.579 37.1688 144.513 36.9085 145.395 36.44Z" fill="#414042"/>
<path d="M171.661 22.6969V37.3249C171.661 40.2922 170.934 42.4786 169.481 43.8841C168.027 45.2897 165.847 46.0185 162.888 46.0185C161.279 46.0185 159.774 45.8102 158.32 45.3417C156.867 44.9253 155.725 44.3006 154.791 43.4677L156.244 41.1251C157.023 41.8018 158.009 42.3224 159.151 42.7389C160.293 43.1553 161.487 43.3115 162.733 43.3115C164.705 43.3115 166.159 42.843 167.093 41.9059C168.027 40.9689 168.494 39.5634 168.494 37.6373V36.2838C167.768 37.1687 166.885 37.7934 165.847 38.2619C164.809 38.6784 163.667 38.9387 162.421 38.9387C160.812 38.9387 159.359 38.5743 158.061 37.8975C156.763 37.2208 155.725 36.2317 154.998 34.9823C154.272 33.733 153.908 32.3274 153.908 30.7137C153.908 29.0999 154.272 27.6944 154.998 26.445C155.725 25.1956 156.763 24.2586 158.061 23.5298C159.359 22.801 160.812 22.4886 162.421 22.4886C163.719 22.4886 164.861 22.7489 165.951 23.2174C167.041 23.686 167.923 24.3627 168.65 25.2997V22.6969H171.661ZM165.847 35.555C166.73 35.0865 167.404 34.4097 167.923 33.5768C168.443 32.7439 168.65 31.7548 168.65 30.7137C168.65 29.0478 168.131 27.7464 167.041 26.7573C165.951 25.7682 164.549 25.2477 162.888 25.2477C161.175 25.2477 159.774 25.7682 158.684 26.7573C157.594 27.7464 157.075 29.0999 157.075 30.7137C157.075 31.7548 157.334 32.7439 157.801 33.5768C158.32 34.4097 158.995 35.0865 159.878 35.555C160.76 36.0235 161.746 36.2838 162.888 36.2838C163.978 36.2838 164.965 36.0235 165.847 35.555Z" fill="#414042"/>
<path d="M179.136 38.5222C178.253 37.6373 177.786 36.3358 177.786 34.7221V15.9815H180.849V34.4618C180.849 35.3988 181.056 36.0756 181.524 36.5961C181.939 37.0646 182.614 37.3249 183.496 37.3249C184.015 37.3249 184.534 37.2208 185.001 37.0126L185.157 39.5634C184.43 39.8237 183.704 39.9278 182.977 39.9278C181.316 39.8757 180.018 39.4072 179.136 38.5222Z" fill="#F6891F"/>
<path d="M203.688 22.6969V39.6675H200.729V36.9605C200.054 37.8976 199.172 38.6263 198.133 39.0949C197.095 39.5634 195.953 39.8237 194.707 39.8237C193.046 39.8237 191.593 39.4593 190.295 38.7305C188.998 38.0017 187.959 37.0126 187.233 35.6591C186.506 34.3577 186.143 32.848 186.143 31.1301C186.143 29.4122 186.506 27.9026 187.233 26.6012C187.959 25.2997 188.998 24.3106 190.295 23.5818C191.593 22.853 193.046 22.4886 194.707 22.4886C195.901 22.4886 197.043 22.6969 198.082 23.1654C199.12 23.6339 199.95 24.3106 200.625 25.1956V22.6448H203.688V22.6969ZM197.874 36.44C198.756 35.9194 199.431 35.2426 199.898 34.3056C200.365 33.4206 200.625 32.3795 200.625 31.1822C200.625 29.9849 200.365 28.9958 199.898 28.0588C199.431 27.1738 198.704 26.445 197.874 25.9765C196.991 25.508 196.057 25.2477 194.967 25.2477C193.877 25.2477 192.891 25.508 192.06 25.9765C191.178 26.445 190.503 27.1738 190.036 28.0588C189.517 28.9437 189.309 29.9849 189.309 31.1822C189.309 32.3795 189.569 33.3686 190.036 34.3056C190.555 35.1906 191.23 35.9194 192.06 36.44C192.943 36.9605 193.877 37.1688 194.967 37.1688C196.005 37.1688 196.991 36.9085 197.874 36.44Z" fill="#F6891F"/>
<path d="M235.249 22.6968V32.0671C235.249 34.5659 234.626 36.492 233.38 37.8455C232.135 39.1989 230.37 39.8757 228.034 39.8757C225.283 39.8757 223.362 38.8866 222.272 36.8564C221.701 37.8975 220.974 38.6263 220.04 39.1469C219.106 39.6675 217.912 39.8757 216.51 39.8757C214.174 39.8757 212.358 39.1989 211.112 37.8455C209.866 36.492 209.295 34.5659 209.295 32.0671V22.6968H212.358V31.7548C212.358 33.5768 212.669 34.9303 213.344 35.7632C214.019 36.6481 215.057 37.0646 216.51 37.0646C217.964 37.0646 219.002 36.6481 219.728 35.7632C220.403 34.8782 220.767 33.5768 220.767 31.7548V22.6968H223.829V31.7548C223.829 33.5247 224.193 34.8782 224.867 35.7632C225.542 36.6481 226.632 37.0646 228.086 37.0646C229.487 37.0646 230.577 36.6481 231.2 35.7632C231.875 34.8782 232.187 33.5768 232.187 31.7548V22.6968H235.249Z" fill="#F6891F"/>
</svg>
