<svg width="55" height="75" viewBox="0 0 55 75" fill="none" xmlns="http://www.w3.org/2000/svg">
<g opacity="0.3">
<path d="M33.469 37.1158L29.5813 25.4527C29.4159 24.9566 28.9516 24.6221 28.4287 24.6221C27.9058 24.6221 27.4416 24.9567 27.2762 25.4527L23.3885 37.1158C23.3054 37.3653 23.3054 37.6348 23.3885 37.8841L27.2762 49.5472C27.4416 50.0433 27.9058 50.3778 28.4287 50.3778C28.9516 50.3778 29.4159 50.0432 29.5813 49.5472L33.469 37.8841C33.5521 37.6348 33.5521 37.3653 33.469 37.1158ZM28.4287 45.3213L25.8217 37.5L28.4287 29.6788L31.0358 37.5L28.4287 45.3213Z" fill="#3F3F3F"/>
<path d="M50.459 7.77538H40.0918C39.6063 7.77538 39.1422 7.86771 38.7149 8.03407V3.8067C38.7149 1.70767 37.0072 0 34.9082 0H21.9492C19.8502 0 18.1425 1.70767 18.1425 3.8067V10.6259C17.7152 10.4595 17.2511 10.3672 16.7657 10.3672H3.8067C1.70767 10.3672 0 12.0748 0 14.1739V71.1933C0 73.2923 1.70767 75 3.8067 75H16.7657C17.7663 75 18.6773 74.6114 19.3575 73.9779C20.0376 74.6114 20.9487 75 21.9492 75H34.9082C35.9088 75 36.8198 74.6114 37.5 73.9779C38.1802 74.6114 39.0912 75 40.0918 75H50.459C52.558 75 54.2657 73.2923 54.2657 71.1933V11.5821C54.2657 9.48304 52.558 7.77538 50.459 7.77538ZM2.42981 21.8682H18.1425V63.4989H2.42981V21.8682ZM20.5724 14.1739V14.0929H36.2851V60.9071H20.5724V14.1739ZM36.2851 11.5821V11.6631H20.5724V8.90929H36.2851V11.5821ZM20.5724 63.3369H36.2851V66.0907H20.5724V63.3369ZM38.7149 19.2765H51.8359V63.4989H38.7149V19.2765ZM40.0918 10.2052H50.459C51.2182 10.2052 51.8359 10.8228 51.8359 11.5821V16.8467H38.7149V11.5821C38.7149 10.8228 39.3326 10.2052 40.0918 10.2052ZM21.9492 2.42981H34.9082C35.6674 2.42981 36.2851 3.04746 36.2851 3.8067V6.47948H20.5724V3.8067C20.5724 3.04746 21.19 2.42981 21.9492 2.42981ZM3.8067 12.797H16.7657C17.5249 12.797 18.1425 13.4146 18.1425 14.1739V19.4384H2.42981V14.1739C2.42981 13.4146 3.04746 12.797 3.8067 12.797ZM16.7657 72.5702H3.8067C3.04746 72.5702 2.42981 71.9525 2.42981 71.1933V65.9287H18.1425V71.1933C18.1425 71.9525 17.5249 72.5702 16.7657 72.5702ZM34.9082 72.5702H21.9492C21.19 72.5702 20.5724 71.9525 20.5724 71.1933V68.5205H36.2851V71.1933C36.2851 71.9525 35.6674 72.5702 34.9082 72.5702ZM50.459 72.5702H40.0918C39.3326 72.5702 38.7149 71.9525 38.7149 71.1933V65.9287H51.8359V71.1933C51.8359 71.9525 51.2182 72.5702 50.459 72.5702Z" fill="#3F3F3F"/>
<path d="M50.3156 41.0035L46.4279 29.3404C46.2625 28.8443 45.7983 28.5098 45.2754 28.5098C44.7525 28.5098 44.2883 28.8444 44.1229 29.3404L40.2352 41.0035C40.1521 41.253 40.1521 41.5225 40.2352 41.7718L44.1229 53.4349C44.2883 53.931 44.7525 54.2655 45.2754 54.2655C45.7983 54.2655 46.2625 53.9309 46.4279 53.4349L50.3156 41.7718C50.3987 41.5225 50.3987 41.253 50.3156 41.0035ZM45.2754 49.209L42.6684 41.3877L45.2754 33.5665L47.8824 41.3877L45.2754 49.209Z" fill="#3F3F3F"/>
<path d="M15.3264 42.2994L11.4387 30.6363C11.2733 30.1402 10.809 29.8057 10.2861 29.8057C9.76325 29.8057 9.29899 30.1403 9.1336 30.6363L5.24592 42.2994C5.16282 42.5489 5.16282 42.8184 5.24592 43.0677L9.1336 54.7308C9.29899 55.2269 9.76325 55.5614 10.2861 55.5614C10.809 55.5614 11.2733 55.2268 11.4387 54.7308L15.3264 43.0677C15.4095 42.8184 15.4095 42.5489 15.3264 42.2994ZM10.2861 50.5049L7.67912 42.6836L10.2861 34.8624L12.8932 42.6836L10.2861 50.5049Z" fill="#3F3F3F"/>
</g>
</svg>
