<svg width="75" height="75" viewBox="0 0 75 75" fill="none" xmlns="http://www.w3.org/2000/svg">
<path d="M74.9972 51.8056C74.9974 51.7886 74.9992 51.7719 74.9992 51.7549C74.9992 51.7511 74.9987 51.7474 74.9985 51.7435C74.9984 51.716 74.9964 51.6884 74.9943 51.6607C74.9933 51.6473 74.9927 51.6339 74.9912 51.6206C74.9886 51.5968 74.9844 51.5731 74.9804 51.5493C74.9775 51.5323 74.975 51.5151 74.9713 51.4983C74.9673 51.48 74.9621 51.4618 74.9572 51.4435C74.9514 51.4216 74.9459 51.3998 74.9389 51.3786C74.9344 51.3646 74.9287 51.3507 74.9237 51.3368C74.9146 51.312 74.9054 51.2875 74.8947 51.2636C74.8931 51.2598 74.8919 51.2559 74.8901 51.252L62.0402 22.9819V19.2765H62.1212C63.5057 19.2765 64.632 18.1502 64.632 16.7657V16.5732C64.632 15.3343 63.7443 14.292 62.5213 14.0945L41.3059 10.6709V8.49557C42.1111 7.59314 42.6018 6.40432 42.6018 5.10259C42.6018 2.28904 40.3127 0 37.4992 0C34.6856 0 32.3966 2.28904 32.3966 5.10259C32.3966 6.40432 32.8872 7.59314 33.6925 8.49557V10.5528L12.4642 14.0909C11.2487 14.2936 10.3664 15.3352 10.3664 16.5675V16.7657C10.3664 18.1502 11.4926 19.2765 12.8772 19.2765H12.9581V22.9819L0.108041 51.252C0.106259 51.2558 0.105125 51.2598 0.103505 51.2636C0.0929759 51.2874 0.0837426 51.312 0.0746714 51.3366C0.0694878 51.3505 0.0639802 51.3645 0.0592826 51.3786C0.0523172 51.3998 0.0466476 51.4216 0.0409781 51.4435C0.0361185 51.4618 0.0309349 51.48 0.0268852 51.4983C0.0233215 51.5151 0.0207297 51.5323 0.0178139 51.5493C0.0137643 51.5731 0.00955259 51.5968 0.0069608 51.6206C0.00550292 51.6339 0.00501696 51.6475 0.00388305 51.6609C0.00177722 51.6884 -4.64049e-06 51.716 -0.000328614 51.7434C-0.000328614 51.7472 -0.000976562 51.751 -0.000976562 51.7547C-0.000976562 51.7719 0.000805294 51.7886 0.000967281 51.8057C0.00161523 51.8193 0.00145324 51.8331 0.00258715 51.8467C0.0783971 56.8438 6.27375 60.7451 14.173 60.7451C22.0723 60.7451 28.2677 56.8438 28.3433 51.8469C28.3445 51.8333 28.3443 51.8195 28.345 51.8057C28.3451 51.7887 28.3469 51.772 28.3469 51.755C28.3469 51.7513 28.3464 51.7476 28.3463 51.7437C28.3461 51.7161 28.3442 51.6886 28.3421 51.6609C28.3411 51.6475 28.3404 51.634 28.339 51.6207C28.3364 51.5969 28.3322 51.5733 28.3281 51.5495C28.3252 51.5324 28.3228 51.5153 28.319 51.4984C28.315 51.4801 28.3098 51.462 28.305 51.4437C28.2991 51.4218 28.2936 51.3999 28.2867 51.3787C28.2821 51.3648 28.2764 51.3509 28.2714 51.3369C28.2624 51.3121 28.2531 51.2877 28.2424 51.2637C28.2408 51.26 28.2397 51.2561 28.2379 51.2522L15.3879 22.9819V19.2765H33.6925V45.6714C32.9206 46.1002 32.3966 46.9233 32.3966 47.8672V65.7645L24.7006 68.1695C23.1029 68.6689 22.0294 70.1291 22.0294 71.803V73.7851C22.0294 74.456 22.5732 75 23.2443 75H51.754C52.4251 75 52.9689 74.456 52.9689 73.7851V71.8029C52.9689 70.1289 51.8954 68.6687 50.2978 68.1693L42.6018 65.7645V47.8672C42.6018 46.9233 42.0777 46.1002 41.3059 45.6714V19.2765H59.6104V22.9819L46.7603 51.2522C46.7585 51.2559 46.7574 51.26 46.7558 51.2637C46.7452 51.2875 46.736 51.3121 46.7269 51.3368C46.7217 51.3507 46.7162 51.3646 46.7115 51.3787C46.7046 51.3999 46.6989 51.4218 46.6932 51.4437C46.6884 51.462 46.6832 51.4801 46.6791 51.4984C46.6756 51.5153 46.673 51.5324 46.6701 51.5495C46.666 51.5733 46.6618 51.5969 46.6592 51.6207C46.6578 51.634 46.6573 51.6476 46.6561 51.6611C46.654 51.6886 46.6522 51.7161 46.6519 51.7435C46.6519 51.7474 46.6513 51.7511 46.6513 51.7549C46.6513 51.772 46.6531 51.7887 46.6532 51.8059C46.6539 51.8195 46.6537 51.8333 46.6548 51.8469C46.7307 56.8438 52.926 60.7451 60.8253 60.7451C68.7246 60.7451 74.92 56.8438 74.9956 51.8469C74.9967 51.8331 74.9966 51.8193 74.9972 51.8056ZM14.173 26.1812L25.2452 50.54H3.10091L14.173 26.1812ZM14.173 58.3153C8.54756 58.3153 3.69378 55.9694 2.64055 52.9698H25.7057C24.6523 55.9694 19.7985 58.3153 14.173 58.3153ZM40.172 47.8672V65.4428H34.8264V47.8672C34.8264 47.8225 34.8628 47.7862 34.9074 47.7862H40.091C40.1355 47.7862 40.172 47.8225 40.172 47.8672ZM36.1223 45.3564V10.0148C36.5606 10.138 37.0221 10.2052 37.4992 10.2052C37.9762 10.2052 38.4377 10.138 38.8761 10.0148V45.3564H36.1223ZM37.4992 2.42981C38.9729 2.42981 40.172 3.62883 40.172 5.10259C40.172 6.57635 38.9729 7.77538 37.4992 7.77538C36.0254 7.77538 34.8264 6.57635 34.8264 5.10259C34.8264 3.62883 36.0254 2.42981 37.4992 2.42981ZM12.8772 16.8467C12.8326 16.8467 12.7962 16.8104 12.7962 16.7657V16.5675C12.7962 16.5277 12.8247 16.4942 12.8639 16.4877L33.6925 13.0163V16.8467H12.8772ZM50.5391 71.8029V72.5702H24.4592V71.8029C24.4592 71.1973 24.8475 70.6691 25.4255 70.4887L33.797 67.8726H41.2015L49.573 70.4887C50.1508 70.6693 50.5391 71.1973 50.5391 71.8029ZM41.3059 13.1323L62.134 16.4934C62.1735 16.4997 62.2022 16.5334 62.2022 16.5734V16.7658C62.2022 16.8105 62.1657 16.8468 62.1212 16.8468H41.3059V13.1323ZM60.8253 26.1812L71.8974 50.54H49.7532L60.8253 26.1812ZM60.8253 58.3153C55.1998 58.3153 50.346 55.9694 49.2928 52.9698H72.358C71.3046 55.9694 66.4508 58.3153 60.8253 58.3153Z" fill="#3F3F3F"/>
</svg>
