<svg width="75" height="72" viewBox="0 0 75 72" fill="none" xmlns="http://www.w3.org/2000/svg">
<path opacity="0.3" d="M68.5205 33.6123V32.2354H71.1933C71.8643 32.2354 72.4082 31.6914 72.4082 31.0205V27.0518H73.7851C74.456 27.0518 75 26.5078 75 25.8369V21.9492C75 21.5133 74.7664 21.1106 74.3878 20.8943L38.1028 0.160003C37.7292 -0.0533342 37.2706 -0.0533342 36.8972 0.160003L0.612149 20.8943C0.233585 21.1106 0 21.5131 0 21.9492V25.8369C0 26.5078 0.543952 27.0518 1.2149 27.0518H2.59179V31.0205C2.59179 31.6914 3.13575 32.2354 3.8067 32.2354H6.47948V33.6123C6.47948 34.5562 7.00351 35.3792 7.77538 35.808V58.3153H3.8067C3.13575 58.3153 2.59179 58.8592 2.59179 59.5302V63.4989H1.2149C0.543952 63.4989 0 64.0428 0 64.7138V69.8974C0 70.5683 0.543952 71.1123 1.2149 71.1123H73.7851C74.456 71.1123 75 70.5683 75 69.8974V64.7138C75 64.0428 74.456 63.4989 73.7851 63.4989H72.4082V59.5302C72.4082 58.8592 71.8643 58.3153 71.1933 58.3153H67.2246V35.808C67.9965 35.3792 68.5205 34.5562 68.5205 33.6123ZM66.0907 33.6123C66.0907 33.657 66.0544 33.6933 66.0097 33.6933H60.8261C60.7814 33.6933 60.7451 33.657 60.7451 33.6123V32.2354H66.0907V33.6123ZM54.2657 58.3153V35.808C55.0375 35.3792 55.5616 34.5562 55.5616 33.6123V32.2354H58.3153V33.6123C58.3153 34.5562 58.8394 35.3792 59.6112 35.808V58.3153H54.2657ZM49.0821 58.3153V36.1231H51.8359V58.3153H49.0821ZM41.3067 58.3153V35.808C42.0786 35.3792 42.6026 34.5562 42.6026 33.6123V32.2354H45.3564V33.6123C45.3564 34.5562 45.8804 35.3792 46.6523 35.808V58.3153H41.3067ZM36.1231 58.3153V36.1231H38.8769V58.3153H36.1231ZM28.3477 58.3153V35.808C29.1196 35.3792 29.6436 34.5562 29.6436 33.6123V32.2354H32.3974V33.6123C32.3974 34.5562 32.9214 35.3792 33.6933 35.808V58.3153H28.3477ZM23.1641 58.3153V36.1231H25.9179V58.3153H23.1641ZM15.3888 58.3153V35.808C16.1606 35.3792 16.6847 34.5562 16.6847 33.6123V32.2354H19.4384V33.6123C19.4384 34.5562 19.9625 35.3792 20.7343 35.808V58.3153H15.3888ZM27.2138 32.2354V33.6123C27.2138 33.657 27.1775 33.6933 27.1328 33.6933H21.9492C21.9045 33.6933 21.8682 33.657 21.8682 33.6123V32.2354H27.2138ZM40.1728 32.2354V33.6123C40.1728 33.657 40.1365 33.6933 40.0918 33.6933H34.9082C34.8635 33.6933 34.8272 33.657 34.8272 33.6123V32.2354H40.1728ZM53.1317 32.2354V33.6123C53.1317 33.657 53.0955 33.6933 53.0508 33.6933H47.8672C47.8225 33.6933 47.7862 33.657 47.7862 33.6123V32.2354H53.1317ZM2.42981 22.6542L37.5 2.61411L72.5702 22.6542V24.622H2.42981V22.6542ZM5.0216 27.0518H69.9784V29.8056H5.0216V27.0518ZM14.2549 32.2354V33.6123C14.2549 33.657 14.2186 33.6933 14.1739 33.6933H8.99028C8.94557 33.6933 8.90929 33.657 8.90929 33.6123V32.2354H14.2549ZM10.2052 36.1231H12.959V58.3153H10.2052V36.1231ZM72.5702 68.6825H2.42981V65.9287H72.5702V68.6825ZM69.9784 63.4989H5.0216V60.7451H69.9784V63.4989ZM62.041 58.3153V36.1231H64.7948V58.3153H62.041Z" fill="#3F3F3F"/>
</svg>
